<?xml version="1.0" encoding="UTF-8" standalone="no"?>
<!-- Created with Inkscape (http://www.inkscape.org/) -->

<svg
   width="74.0mm"
   height="52.0mm"
   viewBox="0 0 74.0 52.0"
   id="SVGRoot"
   version="1.1"
   inkscape:version="1.3.2 (091e20ef0f, 2023-11-25)"
   sodipodi:docname="DMG_Background.svg"
   xml:space="preserve"
   inkscape:export-filename="DMG_Background.jpg"
   inkscape:export-xdpi="179.85947"
   inkscape:export-ydpi="179.85947"
   xmlns:inkscape="http://www.inkscape.org/namespaces/inkscape"
   xmlns:sodipodi="http://sodipodi.sourceforge.net/DTD/sodipodi-0.dtd"
   xmlns="http://www.w3.org/2000/svg"
   xmlns:svg="http://www.w3.org/2000/svg"><sodipodi:namedview
     inkscape:document-units="mm"
     inkscape:zoom="4.1046171"
     inkscape:cx="139.84252"
     inkscape:cy="33.74249"
     id="namedview1"
     pagecolor="#ffffff"
     bordercolor="#000000"
     borderopacity="0.25"
     inkscape:showpageshadow="2"
     inkscape:pageopacity="0.0"
     inkscape:pagecheckerboard="0"
     inkscape:deskcolor="#d1d1d1"
     inkscape:window-width="1920"
     inkscape:window-height="1043"
     inkscape:window-x="0"
     inkscape:window-y="0"
     inkscape:window-maximized="1"
     inkscape:current-layer="SVGRoot"
     inkscape:export-bgcolor="#ffffffff" /><defs
     id="defs1"><clipPath
       clipPathUnits="userSpaceOnUse"
       id="clipPath6"><rect
         style="fill:#62b005;fill-opacity:1;fill-rule:nonzero;stroke-width:0.243635"
         id="rect6"
         width="73.999825"
         height="51.999321"
         x="-0.0008214683"
         y="0.00055644329"
         ry="0"
         inkscape:label="Fond" /></clipPath></defs><g
     inkscape:label="Background"
     inkscape:groupmode="layer"
     id="layer1"
     style="display:inline"><rect
       style="display:inline;opacity:0.708;fill:#62b005;fill-opacity:1;fill-rule:nonzero;stroke-width:0.243635"
       id="rect1"
       width="73.999825"
       height="51.999321"
       x="0.00068095798"
       y="-0.0010142846"
       ry="0"
       inkscape:label="Fond" /></g><g
     inkscape:groupmode="layer"
     id="layer2"
     inkscape:label="Décor"
     style="display:inline;opacity:1"><path
       style="opacity:1;fill:#376c02;fill-opacity:0.696486;fill-rule:nonzero;stroke:none;stroke-width:0.264583;stroke-opacity:1"
       d="m 52.518068,10.167419 c 0.0239,-0.02961 -0.196073,-1.5063579 0.387841,-2.2189988 0.583914,-0.7126411 1.491809,-0.5889441 1.53073,-0.6094289 0.03892,-0.020485 0.319348,-0.786817 1.011005,-1.2993992 0.691658,-0.5125823 1.649106,-0.2375411 1.743399,-0.332851 0.09429,-0.09531 -0.58385,-1.7600078 0.960788,-2.2390084 1.544638,-0.4790006 2.95317,1.5647745 3.097724,1.5871904 0.144555,0.022416 2.083904,-1.0133285 3.12054,-0.1219133 1.036636,0.8914152 0.714185,2.0227108 0.841523,2.2341479 0.127337,0.2114374 2.255056,0.7131315 2.533732,1.9221974 0.278676,1.2090659 -0.443246,2.9496409 -3.074191,3.0156559 -2.630945,0.06602 -8.614418,0.101587 -10.84192,0.04466 -2.227503,-0.05693 -2.216341,-0.880928 -2.221505,-1.09299 -0.0052,-0.212062 0.886434,-0.859647 0.910334,-0.889262 z"
       id="path5912"
       sodipodi:nodetypes="zzzzzzzzzzzzzz"
       inkscape:label="Nuage 1" /><path
       style="display:inline;fill:#376c02;fill-opacity:0.696486;fill-rule:nonzero;stroke:none;stroke-width:0.195976;stroke-opacity:1"
       d="m 16.136553,14.955207 c -0.0177,-0.02193 0.14523,-1.115755 -0.287273,-1.643605 -0.432503,-0.527851 -1.104977,-0.436229 -1.133806,-0.451402 -0.02883,-0.01517 -0.23654,-0.582793 -0.748848,-0.96246 -0.512308,-0.379668 -1.221487,-0.175946 -1.291329,-0.246542 -0.06984,-0.0706 0.432455,-1.303632 -0.711652,-1.6584256 -1.144109,-0.354794 -2.1874026,1.1590226 -2.2944736,1.1756266 -0.107071,0.0166 -1.54354,-0.750569 -2.311373,-0.0903 -0.767833,0.660268 -0.528994,1.498215 -0.623313,1.654826 -0.09432,0.15661 -1.670312,0.528213 -1.876726,1.423764 -0.206415,0.895552 0.32831,2.18479 2.277042,2.233687 1.948732,0.0489 6.3806686,0.07525 8.0305716,0.03308 1.649904,-0.04217 1.641636,-0.6525 1.645461,-0.809574 0.0038,-0.157073 -0.656579,-0.636737 -0.674281,-0.658673 z"
       id="path5912-0"
       sodipodi:nodetypes="zzzzzzzzzzzzzz"
       inkscape:label="Nuage 2" /><text
       xml:space="preserve"
       style="font-size:9.525px;fill:#000000;fill-opacity:0.745927;fill-rule:nonzero;stroke-width:0.264583"
       x="14.378719"
       y="10.16471"
       id="text6"
       inkscape:label="DeMuG_Texte"><tspan
         id="tspan6"
         style="font-style:normal;font-variant:normal;font-weight:normal;font-stretch:normal;font-size:9.525px;font-family:'Early GameBoy';-inkscape-font-specification:'Early GameBoy';fill:#000000;fill-opacity:0.745927;stroke-width:0.264583"
         x="14.378719"
         y="10.16471"
         sodipodi:role="line">DeMuG</tspan></text><text
       xml:space="preserve"
       style="font-style:normal;font-variant:normal;font-weight:normal;font-stretch:normal;font-size:9.525px;font-family:'Early GameBoy';-inkscape-font-specification:'Early GameBoy';fill:#000000;fill-opacity:0.745927;stroke-width:0.264583"
       x="34.619343"
       y="27.637117"
       id="text1"
       inkscape:label="&gt;"><tspan
         sodipodi:role="line"
         id="tspan1"
         style="stroke-width:0.264583"
         x="34.619343"
         y="27.637117">~</tspan></text><path
       style="fill:#376c02;fill-opacity:0.70068759;stroke-width:0.304614"
       d="m 0.48517613,40.509347 c 0,0 8.54881567,-9.94642 11.64144787,-9.935986 3.092632,0.01043 11.447266,10.363308 11.447266,10.363308 l 30.012589,-0.06288 c 0,0 -0.35229,-0.346672 -0.291645,-0.683118 0.06065,-0.336446 0.637583,0.309408 0.716199,0.240128 0.07862,-0.06929 0.26227,-0.860009 0.518996,-1.046245 0.256726,-0.186235 0.803868,0.0335 0.811226,-0.01328 0.0074,-0.04681 0.719755,-0.741652 0.76386,-0.801364 0,0 -0.163854,-0.571472 -0.031,-0.825904 0.132854,-0.254431 0.739716,-0.314347 0.739716,-0.314347 0,0 0.578333,-0.797301 1.005891,-0.775417 0.427558,0.02188 1.040754,0.981811 1.155321,1.056574 0.114567,0.07476 0.490453,0.05483 0.702358,0.24784 0.211905,0.19301 0.308561,0.769119 0.478583,0.875805 0.170022,0.106686 0.229296,0.03611 0.312254,-0.02473 0.08296,-0.06083 0.08003,-0.0656 0.148741,-0.276186 0.06871,-0.210569 -0.02576,-0.78629 0.152773,-1.01724 0.178532,-0.230952 0.636252,-0.137221 0.703722,-0.162187 0.06747,-0.02497 0.480458,-0.702653 0.905725,-0.69661 0.425267,0.0061 1.28489,1.037659 1.28489,1.037659 0,0 0.43538,0.135343 0.628023,0.325297 0.192643,0.189957 0.472358,0.799872 0.472358,0.799872 l 0.160121,-0.06697 0.32118,-0.122568 c 0,0 -0.199782,-0.513591 -0.12624,-0.742445 0.07354,-0.228853 0.472223,-0.378419 0.472223,-0.378419 l 0.44237,-0.01578 c 0,0 0.587748,-0.842444 1.023384,-0.818964 0.435636,0.02347 1.152464,1.100847 1.152464,1.100847 l 0.561221,-0.110461 c 0,0 0.45422,0.481738 0.552808,0.751379 0.09859,0.269641 0.07303,0.742025 0.07303,0.742025 0,0 0.116376,0.633153 0.34287,0.65623 0.226494,0.02307 0.217344,-0.7814 0.523629,-0.731487 0.306285,0.04993 0.303107,1.108296 0.536774,1.258666 0.233667,0.150368 0.266404,-0.241754 0.46228,-0.09408 0.195876,0.14767 0.361009,0.808808 0.331449,1.086762 -0.02956,0.277955 -0.282605,0.32667 -0.238133,0.403149 0.04447,0.07648 0.05154,0.137052 0.21994,0.143607 0.168403,0.0065 2.646968,-0.01075 2.646968,-0.01075 l 0.136919,10.488939 -74.90360945,0.426026 0.09443,-11.438251 z"
       id="path1"
       sodipodi:nodetypes="czcczzzsszczzzzzzzzzczccczcczcczczzzzzzzccccc"
       inkscape:label="Montagnes" /></g></svg>
