<?xml version="1.0" encoding="UTF-8" standalone="no"?>
<!-- Created with Inkscape (http://www.inkscape.org/) -->

<svg
   width="74.0mm"
   height="52.0mm"
   viewBox="0 0 74.0 52.0"
   id="SVGRoot"
   version="1.1"
   inkscape:version="1.3.2 (091e20e, 2023-11-25)"
   sodipodi:docname="DMG_Background.svg"
   xml:space="preserve"
   inkscape:export-filename="DMG_Background.jpg"
   inkscape:export-xdpi="179.85947"
   inkscape:export-ydpi="179.85947"
   xmlns:inkscape="http://www.inkscape.org/namespaces/inkscape"
   xmlns:sodipodi="http://sodipodi.sourceforge.net/DTD/sodipodi-0.dtd"
   xmlns="http://www.w3.org/2000/svg"
   xmlns:svg="http://www.w3.org/2000/svg"><sodipodi:namedview
     inkscape:document-units="mm"
     inkscape:zoom="3.2524479"
     inkscape:cx="125.44398"
     inkscape:cy="104.99784"
     id="namedview1"
     pagecolor="#ffffff"
     bordercolor="#000000"
     borderopacity="0.25"
     inkscape:showpageshadow="2"
     inkscape:pageopacity="0.0"
     inkscape:pagecheckerboard="0"
     inkscape:deskcolor="#d1d1d1"
     inkscape:window-width="1680"
     inkscape:window-height="1050"
     inkscape:window-x="0"
     inkscape:window-y="0"
     inkscape:window-maximized="0"
     inkscape:current-layer="SVGRoot"
     inkscape:export-bgcolor="#ffffffff" /><defs
     id="defs1"><clipPath
       clipPathUnits="userSpaceOnUse"
       id="clipPath6"><rect
         style="fill:#62b005;fill-opacity:1;fill-rule:nonzero;stroke-width:0.243635"
         id="rect6"
         width="73.999825"
         height="51.999321"
         x="-0.0008214683"
         y="0.00055644329"
         ry="0"
         inkscape:label="Fond" /></clipPath><clipPath
       id="clipPath2113"
       clipPathUnits="userSpaceOnUse"><rect
         y="200"
         x="239.99998"
         height="620"
         width="560"
         id="rect2115"
         style="fill:#fffffa;fill-opacity:0.981982;stroke:none;stroke-width:50;stroke-linecap:round;stroke-linejoin:round;stroke-miterlimit:4;stroke-dasharray:none;stroke-opacity:1;paint-order:stroke markers fill" /></clipPath><clipPath
       id="clipPath2113-3"
       clipPathUnits="userSpaceOnUse"><rect
         y="200"
         x="239.99998"
         height="620"
         width="560"
         id="rect2115-7"
         style="fill:#fffffa;fill-opacity:0.981982;stroke:none;stroke-width:50;stroke-linecap:round;stroke-linejoin:round;stroke-miterlimit:4;stroke-dasharray:none;stroke-opacity:1;paint-order:stroke markers fill" /></clipPath></defs><g
     inkscape:label="Background"
     inkscape:groupmode="layer"
     id="layer1"
     style="display:inline"><rect
       style="display:inline;opacity:0.708;fill:#62b005;fill-opacity:1;fill-rule:nonzero;stroke-width:0.243635"
       id="rect1"
       width="73.999825"
       height="51.999321"
       x="0.00068095798"
       y="-0.0010142846"
       ry="0"
       inkscape:label="Fond" /></g><g
     inkscape:groupmode="layer"
     id="layer2"
     inkscape:label="Décor"
     style="display:inline;opacity:1"><path
       style="opacity:1;fill:#376c02;fill-opacity:0.696486;fill-rule:nonzero;stroke:none;stroke-width:0.264583;stroke-opacity:1"
       d="m 52.518068,10.167419 c 0.0239,-0.02961 -0.196073,-1.5063579 0.387841,-2.2189988 0.583914,-0.7126411 1.491809,-0.5889441 1.53073,-0.6094289 0.03892,-0.020485 0.319348,-0.786817 1.011005,-1.2993992 0.691658,-0.5125823 1.649106,-0.2375411 1.743399,-0.332851 0.09429,-0.09531 -0.58385,-1.7600078 0.960788,-2.2390084 1.544638,-0.4790006 2.95317,1.5647745 3.097724,1.5871904 0.144555,0.022416 2.083904,-1.0133285 3.12054,-0.1219133 1.036636,0.8914152 0.714185,2.0227108 0.841523,2.2341479 0.127337,0.2114374 2.255056,0.7131315 2.533732,1.9221974 0.278676,1.2090659 -0.443246,2.9496409 -3.074191,3.0156559 -2.630945,0.06602 -8.614418,0.101587 -10.84192,0.04466 -2.227503,-0.05693 -2.216341,-0.880928 -2.221505,-1.09299 -0.0052,-0.212062 0.886434,-0.859647 0.910334,-0.889262 z"
       id="path5912"
       sodipodi:nodetypes="zzzzzzzzzzzzzz"
       inkscape:label="Nuage 1" /><path
       style="display:inline;fill:#376c02;fill-opacity:0.696486;fill-rule:nonzero;stroke:none;stroke-width:0.195976;stroke-opacity:1"
       d="m 16.136553,14.955207 c -0.0177,-0.02193 0.14523,-1.115755 -0.287273,-1.643605 -0.432503,-0.527851 -1.104977,-0.436229 -1.133806,-0.451402 -0.02883,-0.01517 -0.23654,-0.582793 -0.748848,-0.96246 -0.512308,-0.379668 -1.221487,-0.175946 -1.291329,-0.246542 -0.06984,-0.0706 0.432455,-1.303632 -0.711652,-1.6584256 -1.144109,-0.354794 -2.1874026,1.1590226 -2.2944736,1.1756266 -0.107071,0.0166 -1.54354,-0.750569 -2.311373,-0.0903 -0.767833,0.660268 -0.528994,1.498215 -0.623313,1.654826 -0.09432,0.15661 -1.670312,0.528213 -1.876726,1.423764 -0.206415,0.895552 0.32831,2.18479 2.277042,2.233687 1.948732,0.0489 6.3806686,0.07525 8.0305716,0.03308 1.649904,-0.04217 1.641636,-0.6525 1.645461,-0.809574 0.0038,-0.157073 -0.656579,-0.636737 -0.674281,-0.658673 z"
       id="path5912-0"
       sodipodi:nodetypes="zzzzzzzzzzzzzz"
       inkscape:label="Nuage 2" /><text
       xml:space="preserve"
       style="font-size:9.525px;fill:#000000;fill-opacity:0.745927;fill-rule:nonzero;stroke-width:0.264583"
       x="14.378719"
       y="10.16471"
       id="text6"
       inkscape:label="DeMuG_Texte"><tspan
         id="tspan6"
         style="font-style:normal;font-variant:normal;font-weight:normal;font-stretch:normal;font-size:9.525px;font-family:'Early GameBoy';-inkscape-font-specification:'Early GameBoy';fill:#000000;fill-opacity:0.745927;stroke-width:0.264583"
         x="14.378719"
         y="10.16471"
         sodipodi:role="line">DeMuG</tspan></text><text
       xml:space="preserve"
       style="font-style:normal;font-variant:normal;font-weight:normal;font-stretch:normal;font-size:9.525px;font-family:'Early GameBoy';-inkscape-font-specification:'Early GameBoy';fill:#000000;fill-opacity:0.745927;stroke-width:0.264583"
       x="34.619343"
       y="27.637117"
       id="text1"
       inkscape:label="&gt;"><tspan
         sodipodi:role="line"
         id="tspan1"
         style="stroke-width:0.264583"
         x="34.619343"
         y="27.637117">~</tspan></text><path
       style="fill:#376c02;fill-opacity:0.70068759;stroke-width:0.304614"
       d="m 0.48517613,40.509347 c 0,0 8.54881567,-9.94642 11.64144787,-9.935986 3.092632,0.01043 11.447266,10.363308 11.447266,10.363308 l 30.012589,-0.06288 c 0,0 -0.35229,-0.346672 -0.291645,-0.683118 0.06065,-0.336446 0.637583,0.309408 0.716199,0.240128 0.07862,-0.06929 0.26227,-0.860009 0.518996,-1.046245 0.256726,-0.186235 0.803868,0.0335 0.811226,-0.01328 0.0074,-0.04681 0.719755,-0.741652 0.76386,-0.801364 0,0 -0.163854,-0.571472 -0.031,-0.825904 0.132854,-0.254431 0.739716,-0.314347 0.739716,-0.314347 0,0 0.578333,-0.797301 1.005891,-0.775417 0.427558,0.02188 1.040754,0.981811 1.155321,1.056574 0.114567,0.07476 0.490453,0.05483 0.702358,0.24784 0.211905,0.19301 0.308561,0.769119 0.478583,0.875805 0.170022,0.106686 0.229296,0.03611 0.312254,-0.02473 0.08296,-0.06083 0.08003,-0.0656 0.148741,-0.276186 0.06871,-0.210569 -0.02576,-0.78629 0.152773,-1.01724 0.178532,-0.230952 0.636252,-0.137221 0.703722,-0.162187 0.06747,-0.02497 0.480458,-0.702653 0.905725,-0.69661 0.425267,0.0061 1.28489,1.037659 1.28489,1.037659 0,0 0.43538,0.135343 0.628023,0.325297 0.192643,0.189957 0.472358,0.799872 0.472358,0.799872 l 0.160121,-0.06697 0.32118,-0.122568 c 0,0 -0.199782,-0.513591 -0.12624,-0.742445 0.07354,-0.228853 0.472223,-0.378419 0.472223,-0.378419 l 0.44237,-0.01578 c 0,0 0.587748,-0.842444 1.023384,-0.818964 0.435636,0.02347 1.152464,1.100847 1.152464,1.100847 l 0.561221,-0.110461 c 0,0 0.45422,0.481738 0.552808,0.751379 0.09859,0.269641 0.07303,0.742025 0.07303,0.742025 0,0 0.116376,0.633153 0.34287,0.65623 0.226494,0.02307 0.217344,-0.7814 0.523629,-0.731487 0.306285,0.04993 0.303107,1.108296 0.536774,1.258666 0.233667,0.150368 0.266404,-0.241754 0.46228,-0.09408 0.195876,0.14767 0.361009,0.808808 0.331449,1.086762 -0.02956,0.277955 -0.282605,0.32667 -0.238133,0.403149 0.04447,0.07648 0.05154,0.137052 0.21994,0.143607 0.168403,0.0065 2.646968,-0.01075 2.646968,-0.01075 l 0.136919,10.488939 -74.90360945,0.426026 0.09443,-11.438251 z"
       id="path1"
       sodipodi:nodetypes="czcczzzsszczzzzzzzzzczccczcczcczczzzzzzzccccc"
       inkscape:label="Montagnes" /></g><g
     id="layer1-3"
     transform="matrix(0.01184289,0,0,0.01184289,1.9364396e-4,41.75981)"
     inkscape:label="Logo Red"
     style="display:inline"><g
       id="g11181"
       transform="matrix(0.43775636,0,0,0.43775636,133.86731,321.2863)"><g
         id="text11157"
         clip-path="url(#clipPath2113)"
         mask="none"><path
           style="color:#000000;-inkscape-font-specification:'Vice City Sans Bold, ';fill:#e51a1a;fill-opacity:1;-inkscape-stroke:none"
           d="m 453.86719,-112.14648 c -106.76363,1.874 -214.71781,25.095501 -309.26172,82.847652 l -0.21875,0.132812 -0.2168,0.136719 C 38.488873,37.197486 -30.355213,158.47432 -18.691406,286.79687 c 1.268768,113.0231 61.039257,226.45829 168.884766,277.11133 127.6291,73.55973 269.71387,79.09335 394.625,99.85547 33.64444,6.82216 70.80634,18.5524 97.4375,35.24805 26.77657,16.7868 41.73131,34.62973 45.32226,62.3164 l 0.0957,0.73438 0.11914,0.73242 c 7.59308,46.42216 -26.60554,94.26934 -72.99414,109.85742 l -0.61719,0.20703 -0.61328,0.22657 c -111.421,41.09794 -246.63405,31.96064 -345.49804,-31.67969 l -3.49804,-2.25195 -3.85352,-1.56641 c -8.02341,-3.26521 -22.21327,-18.19725 -36.5918,-40.11719 -14.37853,-21.91993 -23.66597,-49.91284 -60.09961,-69.51953 l -20.80078,-11.19336 -20.97461,10.86914 C 65.85489,756.85088 9.4576055,786.0749 -46.939453,815.29883 l -35.259766,18.26953 13.96875,37.17578 C -13.492064,1016.4143 117.05696,1121.6788 265.89844,1155.1836 l 0.0293,0.01 0.0293,0.01 c 155.62468,34.8136 325.89827,34.8892 479.78711,-25.5645 l 0.17969,-0.07 0.17773,-0.072 C 880.09918,1075.5136 986.72902,947.50895 989.17578,795.62695 l -0.14062,2.88867 C 1000.231,660.16153 935.4918,509.9608 800.06445,448.14062 672.27177,381.89255 533.54686,374.28845 408.74609,354.44141 c -30.2584,-6.13215 -62.36773,-14.62212 -85.93164,-27.05664 -23.40264,-12.34943 -36.74384,-25.4935 -42.61718,-46.11524 -5.26228,-24.78884 2.53849,-45.58667 20.83203,-65.82226 18.52393,-20.49046 48.37531,-36.59104 75.03711,-41.30665 l 0.93164,-0.16601 0.92578,-0.20313 c 113.75505,-25.13004 246.43889,-0.37361 318.45117,86.82813 l -0.49023,-0.76758 c 9.96159,13.08087 27.5525,25.24888 44.02148,26.18945 20.02573,1.14371 31.16495,-5.79236 39.49414,-10.44336 16.65838,-9.30199 30.61098,-15.45986 19.87695,-13.17187 l 5.83008,-1.24219 5.30274,-2.72656 c 39.82643,-20.48217 79.65207,-40.96509 119.47851,-61.44727 l 38.29102,-19.6914 -18.22071,-39.01172 C 884.42545,-2.0298164 741.35675,-83.510157 597.01562,-102.75 c -46.5638,-6.70027 -94.73319,-10.24631 -143.14843,-9.39648 z m 27.90234,89.603511 c 34.42051,0.560605 68.90479,3.485402 102.80469,8.375 l 0.24414,0.03516 0.24609,0.0332 c 104.3952,13.88185661 205.73332,67.846204 262.63477,152.765629 -24.65807,12.68129 -49.31654,25.36363 -73.97461,38.04492 -10.37467,2.8726 -17.95969,6.47339 -23.50977,9.95508 C 649.52536,80.616623 492.59248,57.279303 360.06836,86.142578 312.79343,94.599533 267.8804,118.72091 234.66992,155.45703 c -33.30903,36.84514 -54.22383,90.19473 -41.60547,146.34766 l 0.21094,0.93554 0.25,0.92579 c 13.39699,49.57235 50.04739,83.05181 87.53906,102.83593 37.49168,19.78413 77.46025,29.09106 110.81641,35.8125 l 0.88867,0.17774 0.89453,0.14453 c 131.45994,20.98553 259.78174,29.80843 366.45117,85.51562 l 1.11133,0.58008 1.13867,0.51758 c 94.57127,42.83924 146.02217,156.80741 137.50586,262.04883 l -0.11718,1.4414 -0.0234,1.44727 c -1.76713,109.69403 -83.66088,210.6035 -186.90235,252.2578 -132.72091,52.0774 -285.43267,53.193 -427.32226,21.4551 -0.006,0 -0.0131,0 -0.0195,0 C 178.18675,1043.7253 81.881032,971.89368 31.736328,875.2832 65.327915,857.87665 98.92013,840.471 132.51172,823.06445 c 5.03781,6.59643 10.78561,14.2798 16.81445,23.47071 15.7668,24.03633 35.90166,55.31183 73.91602,72.24023 125.26713,78.89604 284.99816,88.20711 420.44922,38.52148 C 728.62912,928.55231 791.29438,843.26328 776.13477,748.86914 768.32014,691.34771 730.96145,649.03967 689.77148,623.2168 648.35086,597.24932 601.91722,583.99124 561.91992,575.93555 l -0.73047,-0.14649 -0.73633,-0.12304 C 427.68853,553.50593 298.01514,546.23437 193.99609,485.93945 l -1.89453,-1.09765 -1.99219,-0.90821 C 116.64682,450.46354 71.276591,367.56729 70.707031,284.75781 l -0.01367,-2.06836 -0.207031,-2.06054 C 61.361711,189.10462 112.50575,96.490939 191.48828,46.898437 276.02665,-4.6583788 378.60804,-24.223154 481.76953,-22.542969 Z M 736.07812,197.24609 c -0.0768,0.0464 -0.21638,0.18685 -0.29101,0.22852 -1.3652,0.76232 -1.49664,0.26933 0.29101,-0.22852 z"
           id="path2" /></g><path
         id="path11139"
         d="M 515.82812,-0.10742188 C 412.60366,5.1057775 323.79993,67.815032 244.81,129.10212 147.71022,210.66517 54.910027,306.64029 10.12199,427.56717 -21.723973,519.80154 31.025914,612.37878 79.619072,688.23639 159.98236,804.20745 262.13716,910.01185 389.07678,974.44613 c 59.79318,32.96847 132.54663,32.30717 193.71798,3.36331 C 717.36635,918.46573 830.60303,816.87102 919.47233,700.94704 969.76125,631.66492 1020.3451,545.0143 991.52033,456.91449 950.3837,327.67581 859.44775,220.60305 761.40501,129.81352 691.32072,70.034062 611.22973,6.5879516 515.82812,-0.10742188 Z M 276.60742,213.96094 c 89.17295,1.10783 178.52466,-2.49184 267.55804,2.36954 96.63641,7.52182 185.65375,71.67847 219.87144,162.86706 C 816.39365,506.31955 780.35253,676.32579 656.47821,748.0622 573.27116,796.34452 473.15088,787.50249 380.7876,786.52099 334.44497,786.87999 280,780 280.74706,712.92384 c -0.96973,-166.31016 0.43259,-332.70863 -4.13964,-498.9629 z"
         style="display:inline;fill:#e51a1a;fill-opacity:1;stroke:none;stroke-width:80;stroke-linecap:round;stroke-linejoin:round;stroke-miterlimit:4;stroke-dasharray:none;stroke-opacity:1;paint-order:stroke markers fill" /></g><g
       id="g11215"
       transform="matrix(1.5683516,0,0,1.5683516,538.70244,-721.56483)"><g
         aria-label="Dwight"
         style="font-style:normal;font-variant:normal;font-weight:normal;font-stretch:normal;font-size:192px;line-height:1.25;font-family:'Vice City Sans Bold';-inkscape-font-specification:'Vice City Sans Bold, ';letter-spacing:0px;word-spacing:0px;fill:#e51a1a;fill-opacity:1;stroke:none"
         id="text11193"><path
           d="M 113.80396,708.91903 H 61.003959 v 134.4 h 52.800001 c 11.136,0 21.312,-1.92 30.144,-5.76 8.832,-3.84 15.936,-9.216 21.312,-15.744 5.376,-6.528 9.216,-13.632 11.904,-21.696 2.688,-8.064 3.84,-16.32 3.84,-25.152 -0.192,-8.448 -1.728,-16.704 -4.416,-24.384 -2.688,-7.68 -6.72,-14.592 -12.096,-20.928 -5.376,-6.336 -12.288,-11.328 -20.928,-15.168 -8.832,-3.648 -18.624,-5.568 -29.76,-5.568 z m -27.648001,24 h 27.648001 c 13.44,0 23.808,4.224 30.912,12.288 7.104,8.064 10.752,18.048 11.136,29.568 0.192,12.288 -3.264,22.656 -10.176,31.296 -7.104,8.64 -17.664,12.864 -31.872,12.864 H 86.155959 Z"
           id="path11240"
           style="fill:#e51a1a;fill-opacity:1" /><path
           d="m 266.56096,748.47103 -20.544,71.232 -21.696,-71.232 h -26.112 l 33.216,95.232 h 27.264 l 9.792,-28.032 8.448,-31.68 8.448,31.68 9.792,28.032 h 27.264 l 33.024,-95.232 h -25.92 l -21.696,71.232 -20.736,-71.232 z"
           id="path11242"
           style="fill:#e51a1a;fill-opacity:1" /><path
           d="m 375.06196,709.87903 v 22.08 h 23.232 v -22.08 z m 23.616,38.4 h -23.424 v 95.04 h 23.424 z"
           id="path11244"
           style="fill:#e51a1a;fill-opacity:1" /><path
           d="m 487.07896,829.68703 c 0,9.024 -2.496,15.936 -7.296,20.928 -4.8,4.992 -10.368,7.488 -16.704,7.488 -6.528,0 -11.904,-1.728 -16.512,-4.992 -4.608,-3.264 -7.296,-7.488 -8.064,-12.672 l -22.848,4.224 c 1.536,10.752 6.72,19.2 15.552,25.728 8.64,6.336 19.2,9.6 31.68,9.6 13.632,0 24.96,-4.608 33.984,-13.44 9.024,-8.832 13.44,-21.312 13.44,-37.44 v -35.328 -28.032 -18.048 h -23.424 v 5.376 c -7.104,-4.992 -15.168,-7.296 -24,-7.296 -13.44,0 -24.96,4.224 -34.176,13.056 -9.216,8.832 -13.824,20.352 -13.824,34.944 0,14.592 4.416,26.304 12.864,34.752 8.64,8.448 20.352,12.864 35.136,12.864 4.416,0 9.216,-1.152 14.4,-3.456 4.992,-2.304 8.256,-5.184 9.792,-8.256 z m -24,-62.592 c 6.912,0 12.672,2.304 17.472,7.296 4.608,4.992 7.104,11.328 7.104,19.392 0,7.872 -2.496,14.208 -7.104,19.008 -4.8,4.8 -10.56,7.296 -17.472,7.296 -7.104,0 -13.056,-2.496 -17.856,-7.104 -4.608,-4.8 -7.104,-11.136 -7.104,-19.2 0,-8.064 2.496,-14.592 7.104,-19.392 4.8,-4.992 10.752,-7.296 17.856,-7.296 z"
           id="path11246"
           style="fill:#e51a1a;fill-opacity:1" /><path
           d="m 527.87896,708.91903 v 134.4 h 23.424 v -52.224 c 0,-6.912 2.112,-12.288 6.336,-16.128 4.224,-3.84 9.984,-5.952 17.088,-5.952 6.528,0 11.712,2.112 15.552,6.144 3.84,4.032 5.952,10.176 5.952,18.432 v 49.728 h 23.424 v -49.92 c 0,-14.4 -3.264,-25.728 -9.6,-33.792 -6.528,-8.064 -16.128,-12.096 -29.184,-12.096 -5.376,0 -9.024,0 -11.136,0.192 -2.304,0 -5.184,0.96 -9.024,2.496 -3.84,1.536 -6.912,4.224 -9.408,7.68 v -48.768 z"
           id="path11248"
           style="fill:#e51a1a;fill-opacity:1" /><path
           d="m 685.71796,823.35103 c -2.304,0 -4.416,-0.192 -6.336,-0.768 -1.92,-0.384 -4.032,-1.344 -6.336,-2.688 -2.304,-1.344 -4.032,-3.456 -5.376,-6.528 -1.344,-3.072 -1.92,-6.72 -1.92,-11.136 v -33.216 h 19.584 v -20.16 h -19.392 v -26.88 h -23.424 v 26.88 h -8.064 v 20.16 h 8.064 v 33.216 c 0,7.296 0.768,13.44 2.496,18.624 1.728,5.376 4.032,9.408 6.72,12.288 2.688,3.072 5.952,5.376 9.984,7.104 3.84,1.92 7.68,3.072 11.52,3.456 3.648,0.576 7.872,0.768 12.48,0.768 z"
           id="path11250"
           style="fill:#e51a1a;fill-opacity:1" /></g><g
         aria-label="Studio"
         style="font-style:normal;font-variant:normal;font-weight:normal;font-stretch:normal;font-size:192px;line-height:1.25;font-family:'Vice City Sans Bold';-inkscape-font-specification:'Vice City Sans Bold, ';letter-spacing:0px;word-spacing:0px;fill:#e51a1a;fill-opacity:1;stroke:none"
         id="text11209"><path
           d="m 567.47905,866.83683 c -4.416,-8.832 -13.152,-13.344 -26.4,-13.344 -4.416,0.096 -8.544,0.768 -12.288,2.016 -3.84,1.248 -7.008,3.36 -9.696,6.432 -2.688,3.072 -4.032,6.816 -4.032,11.136 0,3.648 0.672,6.72 2.016,9.216 1.344,2.592 3.456,4.608 6.144,6.048 2.688,1.536 5.376,2.592 8.16,3.36 2.784,0.768 6.144,1.344 10.08,1.824 10.368,1.056 15.552,4.32 15.552,9.792 0,3.456 -1.536,5.952 -4.416,7.584 -2.976,1.728 -6.624,2.496 -11.04,2.496 -4.416,0 -8.256,-0.864 -11.712,-2.688 -3.456,-1.728 -5.856,-4.416 -7.296,-7.968 l -10.56,5.472 c 4.512,11.04 14.304,16.512 29.376,16.512 5.184,0 9.792,-0.672 13.92,-2.112 4.128,-1.44 7.584,-3.84 10.272,-7.104 2.688,-3.264 4.032,-7.392 4.032,-12.192 0,-3.072 -0.576,-5.76 -1.536,-8.16 -1.056,-2.4 -2.4,-4.32 -3.936,-5.76 -1.536,-1.44 -3.552,-2.688 -6.048,-3.744 -2.496,-1.056 -4.992,-1.824 -7.296,-2.4 -2.4,-0.48 -5.184,-0.96 -8.352,-1.344 -3.072,-0.384 -5.568,-0.768 -7.584,-1.344 -1.92,-0.48 -3.648,-1.344 -5.184,-2.496 -1.44,-1.152 -2.208,-2.688 -2.208,-4.608 0,-2.592 1.248,-4.704 3.552,-6.336 2.4,-1.728 5.856,-2.496 10.368,-2.496 3.552,0 6.816,0.672 9.792,2.208 2.88,1.44 4.992,3.168 6.24,5.184 z"
           style="font-size:96px;fill:#e51a1a;fill-opacity:1"
           id="path11227" /><path
           d="m 602.79505,913.01283 c -1.152,0 -2.208,-0.096 -3.168,-0.384 -0.96,-0.192 -2.016,-0.672 -3.168,-1.344 -1.152,-0.672 -2.016,-1.728 -2.688,-3.264 -0.672,-1.536 -0.96,-3.36 -0.96,-5.568 v -16.608 h 9.792 v -10.08 h -9.696 v -13.44 h -11.712 v 13.44 h -4.032 v 10.08 h 4.032 v 16.608 c 0,3.648 0.384,6.72 1.248,9.312 0.864,2.688 2.016,4.704 3.36,6.144 1.344,1.536 2.976,2.688 4.992,3.552 1.92,0.96 3.84,1.536 5.76,1.728 1.824,0.288 3.936,0.384 6.24,0.384 z"
           style="font-size:96px;fill:#e51a1a;fill-opacity:1"
           id="path11229" /><path
           d="m 608.35105,875.66883 v 24.864 c 0,7.2 1.728,12.864 5.376,16.992 3.648,4.224 8.352,6.24 14.208,6.24 5.856,0 11.232,-2.304 16.032,-7.104 l 0.768,6.432 h 10.464 v -47.424 h -11.616 v 24.192 c 0,3.744 -1.152,6.912 -3.456,9.504 -2.304,2.496 -5.184,3.84 -8.64,3.84 -3.648,0 -6.528,-1.248 -8.448,-3.552 -2.016,-2.4 -2.976,-5.472 -2.976,-9.216 v -24.768 z"
           style="font-size:96px;fill:#e51a1a;fill-opacity:1"
           id="path11231" /><path
           d="m 688.56955,885.46083 c 3.744,0 7.008,1.344 9.696,3.936 2.688,2.592 4.032,5.856 4.032,9.888 0,4.224 -1.344,7.584 -4.032,10.08 -2.688,2.592 -5.856,3.84 -9.696,3.84 -3.84,0 -7.008,-1.248 -9.6,-3.84 -2.592,-2.592 -3.84,-5.952 -3.84,-10.08 0,-4.128 1.248,-7.488 3.84,-9.984 2.496,-2.496 5.76,-3.84 9.6,-3.84 z m 14.496,-29.472 v 26.208 c -1.344,-2.304 -3.552,-4.224 -6.72,-5.568 -3.168,-1.344 -6.144,-2.016 -8.832,-2.016 -7.2,0 -13.056,2.112 -17.472,6.432 -4.416,4.224 -6.624,10.368 -6.624,18.336 0,7.584 2.208,13.632 6.816,18.048 4.608,4.416 10.464,6.72 17.568,6.72 6.912,0 12,-2.592 15.264,-7.584 v 6.528 h 11.712 v -67.104 z"
           style="font-size:96px;fill:#e51a1a;fill-opacity:1"
           id="path11233" /><path
           d="m 724.77955,856.27683 v 11.04 h 11.616 v -11.04 z m 11.808,19.2 h -11.712 v 47.52 h 11.712 z"
           style="font-size:96px;fill:#e51a1a;fill-opacity:1"
           id="path11235" /><path
           d="m 770.58505,874.70883 c -7.392,0 -13.344,2.4 -17.856,7.104 -4.416,4.8 -6.72,10.656 -6.72,17.568 0,7.104 2.304,12.96 6.72,17.664 4.416,4.704 10.368,7.008 17.856,7.008 7.488,0 13.536,-2.304 17.952,-7.008 4.512,-4.704 6.72,-10.56 6.72,-17.664 0,-6.912 -2.208,-12.768 -6.816,-17.568 -4.608,-4.704 -10.56,-7.104 -17.856,-7.104 z m 0,10.656 c 3.84,0 6.912,1.44 9.312,4.224 2.4,2.88 3.552,6.144 3.552,9.792 0,3.84 -1.056,7.2 -3.36,9.888 -2.304,2.688 -5.472,4.032 -9.504,4.032 -4.032,0 -7.104,-1.344 -9.408,-4.032 -2.304,-2.688 -3.456,-6.048 -3.456,-9.888 0,-3.84 1.152,-7.104 3.456,-9.888 2.304,-2.688 5.376,-4.128 9.408,-4.128 z"
           style="font-size:96px;fill:#e51a1a;fill-opacity:1"
           id="path11237" /></g></g></g></svg>
